<?xml version="1.0" standalone="no"?><!DOCTYPE svg PUBLIC "-//W3C//DTD SVG 1.1//EN" "http://www.w3.org/Graphics/SVG/1.1/DTD/svg11.dtd"><svg t="1754231119112" class="icon" viewBox="0 0 1024 1024" version="1.1" xmlns="http://www.w3.org/2000/svg" p-id="7039" xmlns:xlink="http://www.w3.org/1999/xlink" width="200" height="200"><path d="M772.2 766.1H325.3V395.5c0-123.4 100-223.5 223.5-223.5 123.4 0 223.5 100 223.5 223.5v370.6z" fill="#FF7F15" p-id="7040"></path><path d="M722.1 733.4H313.8V376.1C313.8 263.4 405.2 172 518 172c112.7 0 204.1 91.4 204.1 204.1v357.3z" fill="#FF9E3D" p-id="7041"></path><path d="M482.6 668.2c-112.3 22-204 108.7-241.2 223.5h594.3c-37.5-115.8-130.5-203.1-244.1-224.1-17.2-3.2-35-4.8-53-4.8-19.1 0-37.8 1.8-56 5.4" fill="#007C56" p-id="7042"></path><path d="M459.5 681.8c-101.6 20.5-184.4 101.8-218 209.2h537.4C745 782.7 661 701 558.2 681.3c-15.6-3-31.6-4.5-47.9-4.5-17.5 0-34.4 1.7-50.8 5" fill="#009370" p-id="7043"></path><path d="M445.3 817.6c52.2-8.5 66.9-51.3 66.9-51.3l-0.2-0.2h-0.1c-56.3 0-105.2-31.3-130.4-77.4 9.1-3.8-47.2 21.2-78.8 45.7 41.6 71.8 98.2 90.5 142.6 83.2z" fill="#FFFFFF" p-id="7044"></path><path d="M445.3 817.6c52.2-8.5 66.9-51.3 66.9-51.3l-0.2-0.2h-0.1c-45.5 0-86.2-20.4-113.4-52.6-6.5-7.6-4-2.9-8.4-5.7 9.1-3.8-35.4 19.5-71.2 51.1 39.3 51.5 87.5 65.1 126.4 58.7z" fill="#FFE67D" p-id="7045"></path><path d="M575.5 817.6c-52.2-8.5-66.9-51.3-66.9-51.3l0.2-0.2h0.1c56.3 0 105.2-31.3 130.4-77.4-9.1-3.8 47.2 21.2 78.8 45.7-41.5 71.8-98.1 90.5-142.6 83.2z" fill="#FFE67D" p-id="7046"></path><path d="M455.4 604h108.3v81.5H455.4z m-1.7-383.4c-0.9-5.4-6.1-9.1-11.5-8.2-5.6 0.9-9.9 2.7-15.1 5.3-4.9 2.5-6.9 8.5-4.4 13.4 1.8 3.5 5.3 5.5 8.9 5.5 1.5 0 3.1-0.3 4.5-1.1 4.2-2.1 6.5-3 9.4-3.5 5.5-0.8 9.1-5.9 8.2-11.4z m-56.2 13.2c-15.5 7.8-28.1 24.3-28.6 25-3.3 4.4-2.5 10.7 1.9 14 1.8 1.4 3.9 2 6 2 3 0 6-1.4 8-3.9 0.1-0.1 10.4-13.5 21.7-19.2 4.9-2.5 6.9-8.5 4.4-13.4-2.4-5.1-8.5-7-13.4-4.5z" fill="#FFFFFF" p-id="7047"></path><path d="M645.7 417.4c-81.5-52-139.2-68.7-186-140.6-70.3 16.4-118 100-118.1 187.2v7.7c2 2.1 3.3 3.6 3.4 4.2 24.8 76.8 89.5 131.6 165.4 131.6 83.1 0 152.8-65.7 171.4-154.1l0.2-1.9c-9.8-13.2-21.7-24.9-36.3-34.1z" fill="#FFFFFF" p-id="7048"></path><path d="M645.7 417.4c-11.4-7.3-22.2-13.8-32.7-19.9 2.6 1.6 5.2 3.2 7.8 4.9 14.8 9.4 27 21.3 37.1 34.7l-0.2 1.9c-18.9 89.9-78.1 161.3-174.4 156.7-16.5-0.8-32.5-2.7-47.7-7.5 22.7 12.2 48.1 19.2 74.9 19.2 83.1 0 152.8-65.7 171.4-154.1l0.2-1.9c-9.9-13.1-21.8-24.8-36.4-34z" fill="#FFE67D" p-id="7049"></path><path d="M512 766.1c56.3 0 105.3-31.4 130.5-77.6-23-9.5-47.3-16.6-72.5-20.9-18.8-3.2-38.1-4.8-57.7-4.8-20.8 0-41.2 1.9-61 5.4-24.2 4.3-47.5 11.3-69.7 20.5 25.1 46.1 74.1 77.4 130.4 77.4z" fill="#FFFFFF" p-id="7050"></path><path d="M511.7 894.8c-4.4 0-8-3.6-8-8v-30.1c0-4.4 3.6-8 8-8s8 3.6 8 8v30.1c0 4.4-3.5 8-8 8z" fill="#003D3D" p-id="7051"></path><path d="M843.3 889.1c-15.5-44-39.4-83.7-69.5-117.3 0.3-0.9 0.5-1.8 0.5-2.8V399c0-63.6-25.9-123.4-72.9-168.3-46.9-44.9-109.2-69.5-175.5-69.5s-128.6 24.7-175.5 69.5c-47 44.9-72.9 104.7-72.9 168.3v345.8c-43 38.7-76.6 88-96.4 144.3-1.5 4.2 0.7 8.7 4.9 10.2 0.9 0.3 1.8 0.5 2.7 0.5 3.3 0 6.4-2.1 7.5-5.3 20.8-59 57.4-109.9 104.3-148.2 19.2 30.6 42.3 53 68.7 66.6 18.5 9.5 38.3 14.4 58 14.4 6.5 0 12.9-0.5 19.3-1.6 36.2-5.9 55.8-26.9 65.4-41.5 9.6 14.7 29.2 35.6 65.4 41.5 6.4 1 12.6 1.6 18.7 1.6 18.7 0 36.2-4.9 52.9-14.9 23-13.7 45.2-37.1 67.9-71.6 50.2 38.8 89.3 91.8 111.2 153.8 1.2 3.3 4.2 5.3 7.5 5.3 0.9 0 1.8-0.1 2.7-0.5 4.4-1.6 6.6-6.2 5.1-10.3zM444 809.7c-22.6 3.7-45.9-0.2-67.5-11.2-24.3-12.4-45.6-33.3-63.3-62.2 20.1-14.9 41.9-27.5 64.9-37.6 26.2 43.2 71.5 71 121.6 74.9-7.3 11.9-23.8 30.9-55.7 36.1z m64-204.8c-36.1 0-70.4-11.8-99.1-34.2-27.9-21.7-48.7-52.5-58.7-86.7-0.1-0.5-0.3-1-0.6-1.4v-22c0-41.6 11.2-82.8 31.5-115.9 19.4-31.7 45.9-53.6 75.1-62 34.9 51.3 75.2 74.2 126.1 103.1 18.6 10.6 37.9 21.5 59.1 35 11.8 7.5 22.2 16.9 31.4 28.3-0.4 8.3-3.5 21.2-4.7 25.8 0 0.1 0 0.2-0.1 0.2-8.5 36.4-28.9 69.4-57.5 92.9-29.3 24.1-64.8 36.9-102.5 36.9z m-55.3 71.2c4.2-0.8 7.1-4.7 6.5-8.9v-53.1c15.7 4.5 32.1 6.8 48.8 6.8 18.4 0 36.6-2.9 53.9-8.5v54c0 0.3 0 0.6 0.1 1-0.1 3.9 2.7 7.4 6.7 8.1 21.5 3.6 42.3 9.4 62.3 16.9-25.7 40.7-70.4 65.7-119 65.7-48.4 0-93.2-24.9-118.9-65.5 19.1-7.3 39.1-12.8 59.6-16.5z m188.2 122.3c-19.1 11.4-38.5 15-60.9 11.3-31.9-5.2-48.3-24.2-55.7-36.1 50.2-4 95.4-31.8 121.6-75.1 20.5 8.9 40 19.9 58.2 32.6-21.4 32.8-42.2 54.8-63.2 67.3z m-63-137.5v-54.5c15.3-6.6 29.8-15.3 42.8-26.1 19-15.6 34.6-35 46.1-56.7 2.5 0.5 5 0.7 7.6 0.7 11.5 0 22.5-4.6 30.5-12.8 2.2 7.1 4.3 14.6 6 22.4 10.2 45.1 10 91.3 8 122.1-0.3 4.4 3.1 8.2 7.5 8.5h0.5c4.2 0 7.7-3.3 8-7.5 2-31.9 2.2-79.7-8.4-126.7-13-57.6-38.7-99-76.5-123.1-21.5-13.7-41-24.8-59.8-35.5-49.6-28.2-88.9-50.5-121.9-99.9-0.4-0.6-3-4.7-4.7-7.5l-2.3-3.7c-2.4-3.7-7.3-4.8-11-2.5-3.5 2.2-4.7 6.7-2.9 10.4-31.2 10.4-59.3 34.1-79.8 67.7-21.8 35.6-33.8 79.8-33.9 124.3v93.8c0 4.4 3.6 8 8 8s8-3.6 8-8v-29.8c12.2 22.8 29.1 43 49.4 58.8 13.7 10.6 28.5 19.1 44.2 25.3v52.9c-22.3 4.5-43.9 11-64.6 19.5-0.1 0.1-0.3 0.1-0.4 0.2-30.6 12.6-59 29.5-84.6 49.9V399c0-59.2 24.1-114.9 67.9-156.8 43.9-42 102.3-65.1 164.5-65.1 62.1 0 120.5 23.1 164.5 65.1 43.8 41.9 67.9 97.6 67.9 156.8v356.5c-48.9-48-111.3-81.5-180.6-94.6z m96.2-152.6c4-9.5 7.2-19.4 9.6-29.5 0.2-0.8 1.3-5.1 2.5-10.6 4.7 8.1 9 16.8 12.8 26.2-1 0.6-1.8 1.3-2.5 2.3-5.2 7.5-13.6 11.7-22.4 11.6z" fill="#003D3D" p-id="7052"></path><path d="M579.7 434.1h-20.3c-4.4 0-8 3.6-8 8s3.6 8 8 8h20.3c4.4 0 8-3.6 8-8s-3.6-8-8-8z m-107 8c0-4.4-3.6-8-8-8h-20.3c-4.4 0-8 3.6-8 8s3.6 8 8 8h20.3c4.4 0 8-3.6 8-8z m80.8 37.8c-3.9-2.1-8.7-0.7-10.8 3.2-6.1 11.3-17.9 18.2-30.7 18.2s-24.5-7-30.6-18.2c-2.1-3.9-7-5.3-10.9-3.2-3.9 2.1-5.3 7-3.2 10.9 8.9 16.4 26.1 26.5 44.7 26.5 18.7 0 35.8-10.2 44.7-26.6 2.1-3.8 0.7-8.7-3.2-10.8z" fill="#003D3D" p-id="7053"></path><path d="M495.2 837.9a16.5 16.5 0 1 0 33 0 16.5 16.5 0 1 0-33 0z" fill="#FF8650" p-id="7054"></path><path d="M511.7 862.4c-13.5 0-24.5-11-24.5-24.5s11-24.5 24.5-24.5 24.5 11 24.5 24.5-11 24.5-24.5 24.5z m0-33c-4.7 0-8.5 3.8-8.5 8.5s3.8 8.5 8.5 8.5 8.5-3.8 8.5-8.5-3.8-8.5-8.5-8.5z" fill="#003D3D" p-id="7055"></path></svg>